# xmcd
#
# Track frame offsets: 
#        150
#        16460
#        33485
#        52084
#        70083
#        83130
#        98092
#        113802
#        131163
#        144583
#
# Disc length: 2149 seconds
#
# Revision: 0
# Processed by: cddbd v1.5.2PL0 Copyright (c) Steve Scherf et al.
# Submitted via: ExactAudioCopyFreeDBPlugin 1.0
#
DISCID=8908630a
DTITLE=ดวงตา คงทอง - หัวใจหญิงหม่น
DYEAR=2005
DGENRE=Country
TTITLE0=หัวใจหญิงหม่น
TTITLE1=มนต์รักส้มตำ
TTITLE2=สี่ปีที่คอย
TTITLE3=โยนฟืนเข้ากองไฟ
TTITLE4=รอรักหน้าโรงงาน
TTITLE5=โสดมือซ้าย
TTITLE6=เชื่อก็โง่แล้ว
TTITLE7=เขี่ยดินคอยเธอ
TTITLE8=เหงาใจไร้คู่รำ
TTITLE9=แสงริบหรี่ที่ปลายทาง
EXTD=
EXTT0=
EXTT1=
EXTT2=
EXTT3=
EXTT4=
EXTT5=
EXTT6=
EXTT7=
EXTT8=
EXTT9=
PLAYORDER=
